<?xml version="1.0" encoding="UTF-8" standalone="no" ?>
<!DOCTYPE svg PUBLIC "-//W3C//DTD SVG 1.1//EN" "http://www.w3.org/Graphics/SVG/1.1/DTD/svg11.dtd">
<svg xmlns="http://www.w3.org/2000/svg" xmlns:xlink="http://www.w3.org/1999/xlink" version="1.1" width="32" height="33" viewBox="0 0 32 33" xml:space="preserve">
<desc>Created with Fabric.js 5.2.4</desc>
<defs>
</defs>
<g transform="matrix(0 0 0 0 0 0)" id="ec7eae2c-b808-421e-9d09-6d203392b477"  >
</g>
<g transform="matrix(1 0 0 1 16 16.5)" id="1526aa5f-13d4-47a0-ade0-282189bf2f98"  >
<rect style="stroke: none; stroke-width: 1; stroke-dasharray: none; stroke-linecap: butt; stroke-dashoffset: 0; stroke-linejoin: miter; stroke-miterlimit: 4; fill: rgb(255,255,255); fill-rule: nonzero; opacity: 1; visibility: hidden;" vector-effect="non-scaling-stroke"  x="-16" y="-16.5" rx="0" ry="0" width="32" height="33" />
</g>
<g transform="matrix(0.03 0 0 0.03 16 16.5)"  >
<g style="" vector-effect="non-scaling-stroke"   >
		<g transform="matrix(1.56 0 0 1.56 139.73 199.73)"  >
<path style="stroke: none; stroke-width: 1; stroke-dasharray: none; stroke-linecap: butt; stroke-dashoffset: 0; stroke-linejoin: miter; stroke-miterlimit: 4; fill: rgb(255,255,255); fill-rule: nonzero; opacity: 1;" vector-effect="non-scaling-stroke"  transform=" translate(-345.6, -384)" d="M 456.533 384 C 456.533 445.18399999999997 406.784 494.933 345.6 494.933 C 284.41600000000005 494.933 234.667 445.184 234.667 384 C 234.667 322.816 284.416 273.067 345.6 273.067 C 406.78400000000005 273.067 456.533 322.816 456.533 384 z" stroke-linecap="round" />
</g>
		<g transform="matrix(1.56 0 0 1.56 175.19 196.12)"  >
<path style="stroke: none; stroke-width: 1; stroke-dasharray: none; stroke-linecap: butt; stroke-dashoffset: 0; stroke-linejoin: miter; stroke-miterlimit: 4; fill: rgb(240,240,240); fill-rule: nonzero; opacity: 1;" vector-effect="non-scaling-stroke"  transform=" translate(-368.26, -381.69)" d="M 345.6 273.067 C 321.033 273.067 298.385 281.182 279.987 294.75 C 289.98 291.789 300.52700000000004 290.133 311.466 290.133 C 372.65 290.133 422.399 339.882 422.399 401.066 C 422.399 437.683 404.505 470.109 377.078 490.316 C 422.962 476.714 456.532 434.243 456.532 383.99899999999997 C 456.533 322.816 406.784 273.067 345.6 273.067 z" stroke-linecap="round" />
</g>
		<g transform="matrix(1.56 0 0 1.56 139.89 199.82)"  >
<path style="stroke: none; stroke-width: 1; stroke-dasharray: none; stroke-linecap: butt; stroke-dashoffset: 0; stroke-linejoin: miter; stroke-miterlimit: 4; fill: rgb(0,0,0); fill-rule: nonzero; opacity: 1;" vector-effect="non-scaling-stroke"  transform=" translate(-345.6, -384)" d="M 373.7 403.567 L 354.133 423.134 L 354.133 324.267 C 354.133 319.557 350.31 315.734 345.59999999999997 315.734 C 340.89 315.734 337.06699999999995 319.55699999999996 337.06699999999995 324.267 L 337.06699999999995 423.134 L 317.5 403.567 C 314.163 400.23 308.77 400.23 305.434 403.567 C 302.09800000000007 406.904 302.09700000000004 412.297 305.434 415.633 L 339.567 449.76599999999996 C 341.231 451.42999999999995 343.416 452.26599999999996 345.6 452.26599999999996 C 347.78400000000005 452.26599999999996 349.96900000000005 451.42999999999995 351.63300000000004 449.76599999999996 L 385.766 415.633 C 389.103 412.296 389.103 406.90299999999996 385.766 403.567 C 382.43 400.23 377.037 400.23 373.7 403.567 z" stroke-linecap="round" />
</g>
		<g transform="matrix(1.56 0 0 1.56 139.68 199.68)"  >
<path style="stroke: none; stroke-width: 1; stroke-dasharray: none; stroke-linecap: butt; stroke-dashoffset: 0; stroke-linejoin: miter; stroke-miterlimit: 4; fill: rgb(0,0,0); fill-rule: nonzero; opacity: 1;" vector-effect="non-scaling-stroke"  transform=" translate(-345.6, -384)" d="M 345.6 256 C 275.021 256 217.60000000000002 313.421 217.60000000000002 384 C 217.60000000000002 454.579 275.021 512 345.6 512 C 416.17900000000003 512 473.6 454.579 473.6 384 C 473.6 313.421 416.179 256 345.6 256 z M 345.6 494.933 C 284.433 494.933 234.66700000000003 445.167 234.66700000000003 384 C 234.66700000000003 322.833 284.433 273.067 345.6 273.067 C 406.76700000000005 273.067 456.533 322.833 456.533 384 C 456.533 445.167 406.767 494.933 345.6 494.933 z" stroke-linecap="round" />
</g>
		<g transform="matrix(1.56 0 0 1.56 90.47 -270.73)"  >
<polygon style="stroke: none; stroke-width: 1; stroke-dasharray: none; stroke-linecap: butt; stroke-dashoffset: 0; stroke-linejoin: miter; stroke-miterlimit: 4; fill: rgb(126,147,158); fill-rule: nonzero; opacity: 1;" vector-effect="non-scaling-stroke"  points="53.72,53.72 -53.72,53.72 -53.72,-53.72 " />
</g>
		<g transform="matrix(1.56 0 0 1.56 -100.37 -13.91)"  >
<path style="stroke: none; stroke-width: 1; stroke-dasharray: none; stroke-linecap: butt; stroke-dashoffset: 0; stroke-linejoin: miter; stroke-miterlimit: 4; fill: rgb(175,175,175); fill-rule: nonzero; opacity: 1;" vector-effect="non-scaling-stroke"  transform=" translate(-192, -247.47)" d="M 337.067 153.6 L 337.067 223.317 C 277.931 227.49800000000002 230.656 275.37 227.414 334.848 C 221.099 349.952 217.601 366.592 217.601 384 C 217.601 385.707 217.601 387.413 217.686 389.12 C 219.05100000000002 424.107 234.667 455.595 258.731 477.867 L 234.667 477.867 C 234.667 473.17400000000004 230.827 469.334 226.13400000000001 469.334 L 55.467 469.334 L 55.467 409.6 C 55.467 404.90700000000004 51.626999999999995 401.067 46.934 401.067 L 46.934 384 L 47.019 384 C 51.711999999999996 384 55.467 380.16 55.467 375.467 C 55.467 370.77399999999994 51.626999999999995 366.93399999999997 46.934 366.93399999999997 L 46.934 349.86699999999996 C 51.626999999999995 349.86699999999996 55.467 346.027 55.467 341.33399999999995 L 55.467 17.067 L 243.2 17.067 L 243.2 145.067 C 243.2 149.76000000000002 247.04 153.6 251.73299999999998 153.6 L 337.067 153.6 z" stroke-linecap="round" />
</g>
		<g transform="matrix(1.56 0 0 1.56 80.8 -18.63)"  >
<path style="stroke: none; stroke-width: 1; stroke-dasharray: none; stroke-linecap: butt; stroke-dashoffset: 0; stroke-linejoin: miter; stroke-miterlimit: 4; fill: rgb(126,147,158); fill-rule: nonzero; opacity: 1;" vector-effect="non-scaling-stroke"  transform=" translate(-307.84, -244.22)" d="M 379.733 230.4 L 379.733 228.096 L 379.733 209.15200000000002 L 379.733 153.6 L 337.06600000000003 153.6 L 337.06600000000003 205.05599999999998 L 337.06600000000003 223.31699999999998 C 277.93 227.498 230.65500000000003 275.37 227.413 334.84799999999996 C 246.784 288.597 292.437 256 345.6 256 C 360.619 256 374.95500000000004 258.56 388.26700000000005 263.339 L 388.26700000000005 238.934 C 383.573 238.933 379.733 235.093 379.733 230.4 z" stroke-linecap="round" />
</g>
		<g transform="matrix(1.56 0 0 1.56 -186.91 293.23)"  >
<path style="stroke: none; stroke-width: 1; stroke-dasharray: none; stroke-linecap: butt; stroke-dashoffset: 0; stroke-linejoin: miter; stroke-miterlimit: 4; fill: rgb(0,0,0); fill-rule: nonzero; opacity: 1;" vector-effect="non-scaling-stroke"  transform=" translate(-136.53, -443.73)" d="M 226.133 469.333 L 55.467 469.333 L 55.467 409.6 C 55.467 404.89000000000004 51.644 401.067 46.934 401.067 C 42.224 401.067 38.4 404.89 38.4 409.6 L 38.4 477.867 C 38.4 482.577 42.223 486.40000000000003 46.933 486.40000000000003 L 226.13299999999998 486.40000000000003 C 230.843 486.40000000000003 234.66599999999997 482.57700000000006 234.66599999999997 477.867 C 234.66599999999997 473.157 230.844 469.333 226.133 469.333 z" stroke-linecap="round" />
</g>
		<g transform="matrix(1.56 0 0 1.56 -326.65 186.64)"  >
<path style="stroke: none; stroke-width: 1; stroke-dasharray: none; stroke-linecap: butt; stroke-dashoffset: 0; stroke-linejoin: miter; stroke-miterlimit: 4; fill: rgb(0,0,0); fill-rule: nonzero; opacity: 1;" vector-effect="non-scaling-stroke"  transform=" translate(-46.95, -375.47)" d="M 46.933 384 L 47.018 384 C 51.728 384 55.509 380.177 55.509 375.467 C 55.509 370.757 51.643 366.93399999999997 46.933 366.93399999999997 C 42.223 366.93399999999997 38.4 370.75699999999995 38.4 375.467 C 38.4 380.177 42.223 384 46.933 384 z" stroke-linecap="round" />
</g>
		<g transform="matrix(1.56 0 0 1.56 -60.45 -127.1)"  >
<path style="stroke: none; stroke-width: 1; stroke-dasharray: none; stroke-linecap: butt; stroke-dashoffset: 0; stroke-linejoin: miter; stroke-miterlimit: 4; fill: rgb(0,0,0); fill-rule: nonzero; opacity: 1;" vector-effect="non-scaling-stroke"  transform=" translate(-217.6, -174.93)" d="M 46.933 349.867 C 51.643 349.867 55.466 346.04400000000004 55.466 341.334 L 55.466 17.067 L 243.2 17.067 L 243.2 145.067 C 243.2 149.77700000000002 247.023 153.6 251.73299999999998 153.6 L 379.73299999999995 153.6 L 379.73299999999995 230.39999999999998 C 379.73299999999995 235.10999999999999 383.5559999999999 238.93299999999996 388.26599999999996 238.93299999999996 C 392.976 238.93299999999996 396.799 235.10999999999996 396.799 230.39999999999998 L 396.799 145.06699999999998 C 396.799 142.80599999999998 395.90299999999996 140.62999999999997 394.299 139.034 L 257.766 2.5 C 256.17 0.8959999999999999 253.99400000000003 0 251.73300000000003 0 L 46.93300000000002 0 C 42.223 0 38.4 3.823 38.4 8.533 L 38.4 341.333 C 38.4 346.044 42.223 349.867 46.933 349.867 z M 260.267 29.133 L 367.668 136.534 L 260.267 136.534 L 260.267 29.133 z" stroke-linecap="round" />
</g>
</g>
</g>
</svg>